<svg width="38" height="40" viewBox="0 0 38 40" fill="none" xmlns="http://www.w3.org/2000/svg">
<g clip-path="url(#clip0_32_763)">
<path d="M16.0941 0C24.9839 0 32.1905 7.17778 32.1905 16.0378C32.1969 20.074 30.6687 23.9634 27.9121 26.9267L38 36.9733L34.9645 40L24.5882 29.6622C22.0407 31.2427 19.097 32.0783 16.0941 32.0733C7.20659 32.0733 0 24.8956 0 16.0378C0 7.18 7.20659 0 16.0941 0ZM16.0941 4.27556C14.5423 4.27731 13.006 4.58295 11.5729 5.17503C10.1399 5.76711 8.83822 6.63403 7.74224 7.72629C6.64627 8.81854 5.77745 10.1147 5.18541 11.5408C4.59337 12.9669 4.28971 14.495 4.29176 16.0378C4.29 17.5804 4.59388 19.1082 5.18605 20.5341C5.77822 21.9599 6.64709 23.2558 7.74304 24.3478C8.83899 25.4399 10.1406 26.3066 11.5734 26.8985C13.0063 27.4905 14.5424 27.796 16.0941 27.7978C22.6145 27.7978 27.8965 22.5311 27.8965 16.0378C27.8985 14.495 27.5949 12.9669 27.0028 11.5408C26.4108 10.1147 25.542 8.81854 24.446 7.72629C23.35 6.63403 22.0483 5.76711 20.6153 5.17503C19.1823 4.58295 17.646 4.27731 16.0941 4.27556Z" fill="#1A1919"/>
</g>
<defs>
<clipPath id="clip0_32_763">
<rect width="38" height="40" fill="white"/>
</clipPath>
</defs>
</svg>
