<svg width="38" height="32" viewBox="0 0 38 32" fill="none" xmlns="http://www.w3.org/2000/svg">
<g clip-path="url(#clip0_32_765)">
<path d="M31.6137 5.49543L31.9156 5.75997C32.4926 6.28881 32.9562 6.93155 33.2778 7.64851C33.5994 8.36547 33.7721 9.14143 33.7854 9.92849C33.7986 10.7156 33.6521 11.497 33.3548 12.2246C33.0576 12.9522 32.6159 13.6105 32.057 14.1589L19.0103 27.0165L5.96367 14.1568C5.37784 13.5873 4.91997 12.8972 4.62108 12.1333C4.32219 11.3694 4.18927 10.5495 4.23131 9.72917C4.27335 8.90883 4.48938 8.10719 4.86475 7.37858C5.24013 6.64996 5.76609 6.01138 6.407 5.5061C8.706 3.6373 12.3814 3.91463 14.6952 6.1973L19.0124 10.4533L23.3297 6.19303C25.5506 4.00423 29.0086 3.6565 31.3076 5.2629L31.6137 5.49543ZM17.6444 3.14237C13.8339 -0.612298 7.76445 -1.0731 3.75967 2.18237C-1.12333 6.1589 -1.11911 13.1328 3.01867 17.2117L17.2645 31.2533C18.2883 32.2453 19.7387 32.2453 20.7499 31.2661L35.0083 17.2117C39.011 13.265 39.1334 6.5365 34.6621 2.51303L34.2673 2.17597C30.2731 -1.0795 24.2016 -0.620832 20.3826 3.14237L19.0146 4.49277L17.6444 3.14237Z" fill="#1A1919"/>
</g>
<defs>
<clipPath id="clip0_32_765">
<rect width="38" height="32" fill="white"/>
</clipPath>
</defs>
</svg>
