<svg width="39" height="36" viewBox="0 0 39 36" fill="none" xmlns="http://www.w3.org/2000/svg">
<g clip-path="url(#clip0_32_768)">
<path d="M23.8333 8.47059C23.8333 7.34732 23.3768 6.27005 22.5641 5.47578C21.7515 4.68151 20.6493 4.23529 19.5 4.23529C18.3507 4.23529 17.2485 4.68151 16.4359 5.47578C15.6232 6.27005 15.1667 7.34732 15.1667 8.47059V10.5882H23.8333V8.47059ZM39 36H0V10.5882H10.8333V8.47059C10.8333 6.22405 11.7464 4.06952 13.3717 2.48098C14.9971 0.892435 17.2015 0 19.5 0C21.7985 0 24.0029 0.892435 25.6283 2.48098C27.2536 4.06952 28.1667 6.22405 28.1667 8.47059V10.5882H39V36ZM34.6667 14.8235H4.33333V31.7647H34.6667V14.8235Z" fill="#1A1919"/>
</g>
<defs>
<clipPath id="clip0_32_768">
<rect width="39" height="36" fill="white"/>
</clipPath>
</defs>
</svg>
